<svg id="visual" viewBox="0 0 450 900" width="450" height="900" xmlns="http://www.w3.org/2000/svg" xmlns:xlink="http://www.w3.org/1999/xlink" version="1.1"><rect x="0" y="0" width="450" height="900" fill="#111111"></rect><path d="M367 900L358 836L361 771L356 707L349 643L351 579L340 514L363 450L358 386L345 321L341 257L368 193L352 129L349 64L343 0L450 0L450 64L450 129L450 193L450 257L450 321L450 386L450 450L450 514L450 579L450 643L450 707L450 771L450 836L450 900Z" fill="#111111"></path><path d="M358 900L352 836L356 771L375 707L356 643L351 579L365 514L368 450L351 386L366 321L370 257L356 193L361 129L369 64L355 0L450 0L450 64L450 129L450 193L450 257L450 321L450 386L450 450L450 514L450 579L450 643L450 707L450 771L450 836L450 900Z" fill="#192222"></path><path d="M358 900L380 836L366 771L369 707L363 643L357 579L371 514L378 450L367 386L372 321L367 257L361 193L360 129L364 64L382 0L450 0L450 64L450 129L450 193L450 257L450 321L450 386L450 450L450 514L450 579L450 643L450 707L450 771L450 836L450 900Z" fill="#1f3334"></path><path d="M368 900L388 836L378 771L367 707L384 643L384 579L389 514L369 450L385 386L386 321L379 257L385 193L382 129L384 64L374 0L450 0L450 64L450 129L450 193L450 257L450 321L450 386L450 450L450 514L450 579L450 643L450 707L450 771L450 836L450 900Z" fill="#244547"></path><path d="M391 900L376 836L387 771L397 707L385 643L396 579L388 514L392 450L385 386L378 321L376 257L391 193L385 129L378 64L388 0L450 0L450 64L450 129L450 193L450 257L450 321L450 386L450 450L450 514L450 579L450 643L450 707L450 771L450 836L450 900Z" fill="#28585a"></path><path d="M391 900L393 836L402 771L385 707L390 643L390 579L389 514L386 450L394 386L398 321L397 257L388 193L402 129L399 64L397 0L450 0L450 64L450 129L450 193L450 257L450 321L450 386L450 450L450 514L450 579L450 643L450 707L450 771L450 836L450 900Z" fill="#2a6c6f"></path><path d="M403 900L403 836L409 771L411 707L399 643L395 579L405 514L396 450L395 386L393 321L407 257L400 193L406 129L410 64L401 0L450 0L450 64L450 129L450 193L450 257L450 321L450 386L450 450L450 514L450 579L450 643L450 707L450 771L450 836L450 900Z" fill="#2c8084"></path><path d="M416 900L406 836L411 771L418 707L409 643L417 579L407 514L406 450L401 386L408 321L411 257L413 193L404 129L403 64L415 0L450 0L450 64L450 129L450 193L450 257L450 321L450 386L450 450L450 514L450 579L450 643L450 707L450 771L450 836L450 900Z" fill="#2c9599"></path><path d="M415 900L417 836L422 771L420 707L413 643L425 579L412 514L420 450L422 386L417 321L413 257L417 193L419 129L417 64L423 0L450 0L450 64L450 129L450 193L450 257L450 321L450 386L450 450L450 514L450 579L450 643L450 707L450 771L450 836L450 900Z" fill="#2aabaf"></path><path d="M424 900L425 836L426 771L427 707L430 643L425 579L425 514L428 450L420 386L421 321L425 257L420 193L420 129L420 64L421 0L450 0L450 64L450 129L450 193L450 257L450 321L450 386L450 450L450 514L450 579L450 643L450 707L450 771L450 836L450 900Z" fill="#25c1c6"></path><path d="M433 900L434 836L436 771L431 707L429 643L430 579L431 514L433 450L430 386L437 321L435 257L434 193L438 129L436 64L435 0L450 0L450 64L450 129L450 193L450 257L450 321L450 386L450 450L450 514L450 579L450 643L450 707L450 771L450 836L450 900Z" fill="#1dd7dd"></path><path d="M440 900L441 836L439 771L442 707L443 643L444 579L443 514L440 450L439 386L444 321L437 257L445 193L440 129L444 64L442 0L450 0L450 64L450 129L450 193L450 257L450 321L450 386L450 450L450 514L450 579L450 643L450 707L450 771L450 836L450 900Z" fill="#0aeef5"></path></svg>