<svg id="visual" viewBox="0 0 900 600" width="900" height="600" xmlns="http://www.w3.org/2000/svg" xmlns:xlink="http://www.w3.org/1999/xlink" version="1.1"><rect x="0" y="0" width="900" height="600" fill="#020202"></rect><path d="M217 0L214.8 11.2C212.7 22.3 208.3 44.7 199 66.8C189.7 89 175.3 111 184.3 133.2C193.3 155.3 225.7 177.7 226.3 200C227 222.3 196 244.7 179.3 266.8C162.7 289 160.3 311 167.5 333.2C174.7 355.3 191.3 377.7 202.3 400C213.3 422.3 218.7 444.7 220.2 466.8C221.7 489 219.3 511 213.2 533.2C207 555.3 197 577.7 192 588.8L187 600L0 600L0 588.8C0 577.7 0 555.3 0 533.2C0 511 0 489 0 466.8C0 444.7 0 422.3 0 400C0 377.7 0 355.3 0 333.2C0 311 0 289 0 266.8C0 244.7 0 222.3 0 200C0 177.7 0 155.3 0 133.2C0 111 0 89 0 66.8C0 44.7 0 22.3 0 11.2L0 0Z" fill="#0c0c0c"></path><path d="M245 0L237.8 11.2C230.7 22.3 216.3 44.7 212.8 66.8C209.3 89 216.7 111 216 133.2C215.3 155.3 206.7 177.7 198.2 200C189.7 222.3 181.3 244.7 173.7 266.8C166 289 159 311 157.7 333.2C156.3 355.3 160.7 377.7 175.5 400C190.3 422.3 215.7 444.7 219.2 466.8C222.7 489 204.3 511 197.8 533.2C191.3 555.3 196.7 577.7 199.3 588.8L202 600L0 600L0 588.8C0 577.7 0 555.3 0 533.2C0 511 0 489 0 466.8C0 444.7 0 422.3 0 400C0 377.7 0 355.3 0 333.2C0 311 0 289 0 266.8C0 244.7 0 222.3 0 200C0 177.7 0 155.3 0 133.2C0 111 0 89 0 66.8C0 44.7 0 22.3 0 11.2L0 0Z" fill="#221810"></path><path d="M154 0L159.5 11.2C165 22.3 176 44.7 185.5 66.8C195 89 203 111 209 133.2C215 155.3 219 177.7 207.8 200C196.7 222.3 170.3 244.7 164.5 266.8C158.7 289 173.3 311 185.3 333.2C197.3 355.3 206.7 377.7 207 400C207.3 422.3 198.7 444.7 196.3 466.8C194 489 198 511 197.3 533.2C196.7 555.3 191.3 577.7 188.7 588.8L186 600L0 600L0 588.8C0 577.7 0 555.3 0 533.2C0 511 0 489 0 466.8C0 444.7 0 422.3 0 400C0 377.7 0 355.3 0 333.2C0 311 0 289 0 266.8C0 244.7 0 222.3 0 200C0 177.7 0 155.3 0 133.2C0 111 0 89 0 66.8C0 44.7 0 22.3 0 11.2L0 0Z" fill="#352113"></path><path d="M125 0L128.2 11.2C131.3 22.3 137.7 44.7 143.3 66.8C149 89 154 111 156.8 133.2C159.7 155.3 160.3 177.7 164.5 200C168.7 222.3 176.3 244.7 170.8 266.8C165.3 289 146.7 311 144.3 333.2C142 355.3 156 377.7 157.3 400C158.7 422.3 147.3 444.7 149.8 466.8C152.3 489 168.7 511 175.2 533.2C181.7 555.3 178.3 577.7 176.7 588.8L175 600L0 600L0 588.8C0 577.7 0 555.3 0 533.2C0 511 0 489 0 466.8C0 444.7 0 422.3 0 400C0 377.7 0 355.3 0 333.2C0 311 0 289 0 266.8C0 244.7 0 222.3 0 200C0 177.7 0 155.3 0 133.2C0 111 0 89 0 66.8C0 44.7 0 22.3 0 11.2L0 0Z" fill="#492b14"></path><path d="M155 0L157.5 11.2C160 22.3 165 44.7 161 66.8C157 89 144 111 146.3 133.2C148.7 155.3 166.3 177.7 167 200C167.7 222.3 151.3 244.7 141.7 266.8C132 289 129 311 131.8 333.2C134.7 355.3 143.3 377.7 151.7 400C160 422.3 168 444.7 171 466.8C174 489 172 511 172.3 533.2C172.7 555.3 175.3 577.7 176.7 588.8L178 600L0 600L0 588.8C0 577.7 0 555.3 0 533.2C0 511 0 489 0 466.8C0 444.7 0 422.3 0 400C0 377.7 0 355.3 0 333.2C0 311 0 289 0 266.8C0 244.7 0 222.3 0 200C0 177.7 0 155.3 0 133.2C0 111 0 89 0 66.8C0 44.7 0 22.3 0 11.2L0 0Z" fill="#5e3516"></path><path d="M116 0L120 11.2C124 22.3 132 44.7 130 66.8C128 89 116 111 117.3 133.2C118.7 155.3 133.3 177.7 140 200C146.7 222.3 145.3 244.7 142.7 266.8C140 289 136 311 137.3 333.2C138.7 355.3 145.3 377.7 147.7 400C150 422.3 148 444.7 145.7 466.8C143.3 489 140.7 511 134.8 533.2C129 555.3 120 577.7 115.5 588.8L111 600L0 600L0 588.8C0 577.7 0 555.3 0 533.2C0 511 0 489 0 466.8C0 444.7 0 422.3 0 400C0 377.7 0 355.3 0 333.2C0 311 0 289 0 266.8C0 244.7 0 222.3 0 200C0 177.7 0 155.3 0 133.2C0 111 0 89 0 66.8C0 44.7 0 22.3 0 11.2L0 0Z" fill="#734016"></path><path d="M113 0L114.3 11.2C115.7 22.3 118.3 44.7 118.7 66.8C119 89 117 111 111.7 133.2C106.3 155.3 97.7 177.7 95.2 200C92.7 222.3 96.3 244.7 105 266.8C113.7 289 127.3 311 127.2 333.2C127 355.3 113 377.7 104.5 400C96 422.3 93 444.7 97.8 466.8C102.7 489 115.3 511 123.5 533.2C131.7 555.3 135.3 577.7 137.2 588.8L139 600L0 600L0 588.8C0 577.7 0 555.3 0 533.2C0 511 0 489 0 466.8C0 444.7 0 422.3 0 400C0 377.7 0 355.3 0 333.2C0 311 0 289 0 266.8C0 244.7 0 222.3 0 200C0 177.7 0 155.3 0 133.2C0 111 0 89 0 66.8C0 44.7 0 22.3 0 11.2L0 0Z" fill="#894a16"></path><path d="M120 0L119.5 11.2C119 22.3 118 44.7 110.7 66.8C103.3 89 89.7 111 87.5 133.2C85.3 155.3 94.7 177.7 97.8 200C101 222.3 98 244.7 94.7 266.8C91.3 289 87.7 311 83.5 333.2C79.3 355.3 74.7 377.7 76.2 400C77.7 422.3 85.3 444.7 91.3 466.8C97.3 489 101.7 511 98.8 533.2C96 555.3 86 577.7 81 588.8L76 600L0 600L0 588.8C0 577.7 0 555.3 0 533.2C0 511 0 489 0 466.8C0 444.7 0 422.3 0 400C0 377.7 0 355.3 0 333.2C0 311 0 289 0 266.8C0 244.7 0 222.3 0 200C0 177.7 0 155.3 0 133.2C0 111 0 89 0 66.8C0 44.7 0 22.3 0 11.2L0 0Z" fill="#a05515"></path><path d="M77 0L77.2 11.2C77.3 22.3 77.7 44.7 76.2 66.8C74.7 89 71.3 111 71.5 133.2C71.7 155.3 75.3 177.7 80 200C84.7 222.3 90.3 244.7 93.2 266.8C96 289 96 311 95.3 333.2C94.7 355.3 93.3 377.7 89.3 400C85.3 422.3 78.7 444.7 80.3 466.8C82 489 92 511 94 533.2C96 555.3 90 577.7 87 588.8L84 600L0 600L0 588.8C0 577.7 0 555.3 0 533.2C0 511 0 489 0 466.8C0 444.7 0 422.3 0 400C0 377.7 0 355.3 0 333.2C0 311 0 289 0 266.8C0 244.7 0 222.3 0 200C0 177.7 0 155.3 0 133.2C0 111 0 89 0 66.8C0 44.7 0 22.3 0 11.2L0 0Z" fill="#b76013"></path><path d="M68 0L66 11.2C64 22.3 60 44.7 58.2 66.8C56.3 89 56.7 111 58.7 133.2C60.7 155.3 64.3 177.7 66.3 200C68.3 222.3 68.7 244.7 69.5 266.8C70.3 289 71.7 311 68 333.2C64.3 355.3 55.7 377.7 52 400C48.3 422.3 49.7 444.7 52.3 466.8C55 489 59 511 60.7 533.2C62.3 555.3 61.7 577.7 61.3 588.8L61 600L0 600L0 588.8C0 577.7 0 555.3 0 533.2C0 511 0 489 0 466.8C0 444.7 0 422.3 0 400C0 377.7 0 355.3 0 333.2C0 311 0 289 0 266.8C0 244.7 0 222.3 0 200C0 177.7 0 155.3 0 133.2C0 111 0 89 0 66.8C0 44.7 0 22.3 0 11.2L0 0Z" fill="#ce6c0f"></path><path d="M38 0L38.2 11.2C38.3 22.3 38.7 44.7 39.2 66.8C39.7 89 40.3 111 43 133.2C45.7 155.3 50.3 177.7 48.8 200C47.3 222.3 39.7 244.7 35.5 266.8C31.3 289 30.7 311 32.5 333.2C34.3 355.3 38.7 377.7 43.5 400C48.3 422.3 53.7 444.7 55.2 466.8C56.7 489 54.3 511 54.5 533.2C54.7 555.3 57.3 577.7 58.7 588.8L60 600L0 600L0 588.8C0 577.7 0 555.3 0 533.2C0 511 0 489 0 466.8C0 444.7 0 422.3 0 400C0 377.7 0 355.3 0 333.2C0 311 0 289 0 266.8C0 244.7 0 222.3 0 200C0 177.7 0 155.3 0 133.2C0 111 0 89 0 66.8C0 44.7 0 22.3 0 11.2L0 0Z" fill="#e67709"></path><path d="M25 0L25.2 11.2C25.3 22.3 25.7 44.7 26.2 66.8C26.7 89 27.3 111 26.5 133.2C25.7 155.3 23.3 177.7 21.8 200C20.3 222.3 19.7 244.7 21.3 266.8C23 289 27 311 28.2 333.2C29.3 355.3 27.7 377.7 27.5 400C27.3 422.3 28.7 444.7 28.3 466.8C28 489 26 511 26.8 533.2C27.7 555.3 31.3 577.7 33.2 588.8L35 600L0 600L0 588.8C0 577.7 0 555.3 0 533.2C0 511 0 489 0 466.8C0 444.7 0 422.3 0 400C0 377.7 0 355.3 0 333.2C0 311 0 289 0 266.8C0 244.7 0 222.3 0 200C0 177.7 0 155.3 0 133.2C0 111 0 89 0 66.8C0 44.7 0 22.3 0 11.2L0 0Z" fill="#ff8300"></path></svg>