<svg id="visual" viewBox="0 0 600 900" width="600" height="900" xmlns="http://www.w3.org/2000/svg" xmlns:xlink="http://www.w3.org/1999/xlink" version="1.1"><rect x="0" y="0" width="600" height="900" fill="#030303"></rect><path d="M397 900L396 900L396 861L352 861L352 822L382 822L382 783L369 783L369 743L365 743L365 704L362 704L362 665L373 665L373 626L407 626L407 587L396 587L396 548L388 548L388 509L348 509L348 470L411 470L411 430L396 430L396 391L343 391L343 352L368 352L368 313L363 313L363 274L344 274L344 235L350 235L350 196L376 196L376 157L391 157L391 117L363 117L363 78L381 78L381 39L390 39L390 0L600 0L600 39L600 39L600 78L600 78L600 117L600 117L600 157L600 157L600 196L600 196L600 235L600 235L600 274L600 274L600 313L600 313L600 352L600 352L600 391L600 391L600 430L600 430L600 470L600 470L600 509L600 509L600 548L600 548L600 587L600 587L600 626L600 626L600 665L600 665L600 704L600 704L600 743L600 743L600 783L600 783L600 822L600 822L600 861L600 861L600 900L600 900Z" fill="#271300"></path><path d="M370 900L402 900L402 861L412 861L412 822L402 822L402 783L363 783L363 743L362 743L362 704L416 704L416 665L377 665L377 626L392 626L392 587L406 587L406 548L420 548L420 509L414 509L414 470L369 470L369 430L407 430L407 391L427 391L427 352L379 352L379 313L360 313L360 274L385 274L385 235L416 235L416 196L402 196L402 157L380 157L380 117L382 117L382 78L373 78L373 39L411 39L411 0L600 0L600 39L600 39L600 78L600 78L600 117L600 117L600 157L600 157L600 196L600 196L600 235L600 235L600 274L600 274L600 313L600 313L600 352L600 352L600 391L600 391L600 430L600 430L600 470L600 470L600 509L600 509L600 548L600 548L600 587L600 587L600 626L600 626L600 665L600 665L600 704L600 704L600 743L600 743L600 783L600 783L600 822L600 822L600 861L600 861L600 900L600 900Z" fill="#381d08"></path><path d="M388 900L435 900L435 861L411 861L411 822L384 822L384 783L409 783L409 743L391 743L391 704L438 704L438 665L400 665L400 626L413 626L413 587L412 587L412 548L389 548L389 509L392 509L392 470L391 470L391 430L427 430L427 391L427 391L427 352L432 352L432 313L390 313L390 274L393 274L393 235L404 235L404 196L412 196L412 157L431 157L431 117L437 117L437 78L391 78L391 39L437 39L437 0L600 0L600 39L600 39L600 78L600 78L600 117L600 117L600 157L600 157L600 196L600 196L600 235L600 235L600 274L600 274L600 313L600 313L600 352L600 352L600 391L600 391L600 430L600 430L600 470L600 470L600 509L600 509L600 548L600 548L600 587L600 587L600 626L600 626L600 665L600 665L600 704L600 704L600 743L600 743L600 783L600 783L600 822L600 822L600 861L600 861L600 900L600 900Z" fill="#4a270d"></path><path d="M426 900L443 900L443 861L424 861L424 822L449 822L449 783L458 783L458 743L433 743L433 704L406 704L406 665L401 665L401 626L437 626L437 587L443 587L443 548L428 548L428 509L401 509L401 470L414 470L414 430L418 430L418 391L404 391L404 352L433 352L433 313L448 313L448 274L414 274L414 235L407 235L407 196L416 196L416 157L407 157L407 117L409 117L409 78L413 78L413 39L412 39L412 0L600 0L600 39L600 39L600 78L600 78L600 117L600 117L600 157L600 157L600 196L600 196L600 235L600 235L600 274L600 274L600 313L600 313L600 352L600 352L600 391L600 391L600 430L600 430L600 470L600 470L600 509L600 509L600 548L600 548L600 587L600 587L600 626L600 626L600 665L600 665L600 704L600 704L600 743L600 743L600 783L600 783L600 822L600 822L600 861L600 861L600 900L600 900Z" fill="#5d3210"></path><path d="M426 900L455 900L455 861L449 861L449 822L439 822L439 783L457 783L457 743L461 743L461 704L471 704L471 665L438 665L438 626L428 626L428 587L469 587L469 548L453 548L453 509L450 509L450 470L437 470L437 430L429 430L429 391L449 391L449 352L439 352L439 313L470 313L470 274L443 274L443 235L449 235L449 196L465 196L465 157L447 157L447 117L453 117L453 78L470 78L470 39L455 39L455 0L600 0L600 39L600 39L600 78L600 78L600 117L600 117L600 157L600 157L600 196L600 196L600 235L600 235L600 274L600 274L600 313L600 313L600 352L600 352L600 391L600 391L600 430L600 430L600 470L600 470L600 509L600 509L600 548L600 548L600 587L600 587L600 626L600 626L600 665L600 665L600 704L600 704L600 743L600 743L600 783L600 783L600 822L600 822L600 861L600 861L600 900L600 900Z" fill="#713d12"></path><path d="M473 900L476 900L476 861L469 861L469 822L469 822L469 783L479 783L479 743L489 743L489 704L460 704L460 665L481 665L481 626L483 626L483 587L477 587L477 548L483 548L483 509L475 509L475 470L485 470L485 430L489 430L489 391L453 391L453 352L462 352L462 313L461 313L461 274L471 274L471 235L470 235L470 196L463 196L463 157L474 157L474 117L468 117L468 78L458 78L458 39L480 39L480 0L600 0L600 39L600 39L600 78L600 78L600 117L600 117L600 157L600 157L600 196L600 196L600 235L600 235L600 274L600 274L600 313L600 313L600 352L600 352L600 391L600 391L600 430L600 430L600 470L600 470L600 509L600 509L600 548L600 548L600 587L600 587L600 626L600 626L600 665L600 665L600 704L600 704L600 743L600 743L600 783L600 783L600 822L600 822L600 861L600 861L600 900L600 900Z" fill="#854914"></path><path d="M489 900L474 900L474 861L483 861L483 822L481 822L481 783L488 783L488 743L497 743L497 704L504 704L504 665L485 665L485 626L472 626L472 587L499 587L499 548L477 548L477 509L498 509L498 470L467 470L467 430L489 430L489 391L481 391L481 352L486 352L486 313L474 313L474 274L473 274L473 235L482 235L482 196L483 196L483 157L465 157L465 117L497 117L497 78L464 78L464 39L466 39L466 0L600 0L600 39L600 39L600 78L600 78L600 117L600 117L600 157L600 157L600 196L600 196L600 235L600 235L600 274L600 274L600 313L600 313L600 352L600 352L600 391L600 391L600 430L600 430L600 470L600 470L600 509L600 509L600 548L600 548L600 587L600 587L600 626L600 626L600 665L600 665L600 704L600 704L600 743L600 743L600 783L600 783L600 822L600 822L600 861L600 861L600 900L600 900Z" fill="#995514"></path><path d="M517 900L504 900L504 861L503 861L503 822L515 822L515 783L516 783L516 743L492 743L492 704L504 704L504 665L508 665L508 626L502 626L502 587L507 587L507 548L516 548L516 509L492 509L492 470L506 470L506 430L492 430L492 391L497 391L497 352L523 352L523 313L487 313L487 274L489 274L489 235L493 235L493 196L522 196L522 157L516 157L516 117L507 117L507 78L524 78L524 39L503 39L503 0L600 0L600 39L600 39L600 78L600 78L600 117L600 117L600 157L600 157L600 196L600 196L600 235L600 235L600 274L600 274L600 313L600 313L600 352L600 352L600 391L600 391L600 430L600 430L600 470L600 470L600 509L600 509L600 548L600 548L600 587L600 587L600 626L600 626L600 665L600 665L600 704L600 704L600 743L600 743L600 783L600 783L600 822L600 822L600 861L600 861L600 900L600 900Z" fill="#ad6214"></path><path d="M520 900L533 900L533 861L532 861L532 822L540 822L540 783L525 783L525 743L526 743L526 704L510 704L510 665L517 665L517 626L520 626L520 587L512 587L512 548L512 548L512 509L506 509L506 470L529 470L529 430L522 430L522 391L512 391L512 352L531 352L531 313L520 313L520 274L505 274L505 235L516 235L516 196L530 196L530 157L521 157L521 117L534 117L534 78L537 78L537 39L535 39L535 0L600 0L600 39L600 39L600 78L600 78L600 117L600 117L600 157L600 157L600 196L600 196L600 235L600 235L600 274L600 274L600 313L600 313L600 352L600 352L600 391L600 391L600 430L600 430L600 470L600 470L600 509L600 509L600 548L600 548L600 587L600 587L600 626L600 626L600 665L600 665L600 704L600 704L600 743L600 743L600 783L600 783L600 822L600 822L600 861L600 861L600 900L600 900Z" fill="#c27013"></path><path d="M541 900L552 900L552 861L546 861L546 822L550 822L550 783L538 783L538 743L554 743L554 704L547 704L547 665L550 665L550 626L551 626L551 587L544 587L544 548L540 548L540 509L552 509L552 470L533 470L533 430L533 430L533 391L531 391L531 352L542 352L542 313L536 313L536 274L546 274L546 235L538 235L538 196L526 196L526 157L546 157L546 117L529 117L529 78L539 78L539 39L553 39L553 0L600 0L600 39L600 39L600 78L600 78L600 117L600 117L600 157L600 157L600 196L600 196L600 235L600 235L600 274L600 274L600 313L600 313L600 352L600 352L600 391L600 391L600 430L600 430L600 470L600 470L600 509L600 509L600 548L600 548L600 587L600 587L600 626L600 626L600 665L600 665L600 704L600 704L600 743L600 743L600 783L600 783L600 822L600 822L600 861L600 861L600 900L600 900Z" fill="#d67e10"></path><path d="M558 900L559 900L559 861L570 861L570 822L546 822L546 783L551 783L551 743L556 743L556 704L570 704L570 665L547 665L547 626L548 626L548 587L567 587L567 548L553 548L553 509L569 509L569 470L558 470L558 430L551 430L551 391L566 391L566 352L565 352L565 313L550 313L550 274L572 274L572 235L569 235L569 196L561 196L561 157L556 157L556 117L569 117L569 78L560 78L560 39L546 39L546 0L600 0L600 39L600 39L600 78L600 78L600 117L600 117L600 157L600 157L600 196L600 196L600 235L600 235L600 274L600 274L600 313L600 313L600 352L600 352L600 391L600 391L600 430L600 430L600 470L600 470L600 509L600 509L600 548L600 548L600 587L600 587L600 626L600 626L600 665L600 665L600 704L600 704L600 743L600 743L600 783L600 783L600 822L600 822L600 861L600 861L600 900L600 900Z" fill="#eb8c0a"></path><path d="M578 900L570 900L570 861L569 861L569 822L573 822L573 783L582 783L582 743L583 743L583 704L573 704L573 665L581 665L581 626L587 626L587 587L584 587L584 548L587 548L587 509L584 509L584 470L587 470L587 430L585 430L585 391L567 391L567 352L577 352L577 313L573 313L573 274L571 274L571 235L572 235L572 196L587 196L587 157L580 157L580 117L571 117L571 78L572 78L572 39L577 39L577 0L600 0L600 39L600 39L600 78L600 78L600 117L600 117L600 157L600 157L600 196L600 196L600 235L600 235L600 274L600 274L600 313L600 313L600 352L600 352L600 391L600 391L600 430L600 430L600 470L600 470L600 509L600 509L600 548L600 548L600 587L600 587L600 626L600 626L600 665L600 665L600 704L600 704L600 743L600 743L600 783L600 783L600 822L600 822L600 861L600 861L600 900L600 900Z" fill="#ff9b00"></path></svg>