<svg id="visual" viewBox="0 0 900 600" width="900" height="600" xmlns="http://www.w3.org/2000/svg" xmlns:xlink="http://www.w3.org/1999/xlink" version="1.1"><rect x="0" y="0" width="900" height="600" fill="#0c0c0c"></rect><path d="M634 600L617 600L617 574L678 574L678 548L670 548L670 522L633 522L633 496L700 496L700 470L645 470L645 443L626 443L626 417L635 417L635 391L618 391L618 365L694 365L694 339L646 339L646 313L699 313L699 287L685 287L685 261L651 261L651 235L676 235L676 209L701 209L701 183L626 183L626 157L644 157L644 130L708 130L708 104L624 104L624 78L667 78L667 52L645 52L645 26L615 26L615 0L900 0L900 26L900 26L900 52L900 52L900 78L900 78L900 104L900 104L900 130L900 130L900 157L900 157L900 183L900 183L900 209L900 209L900 235L900 235L900 261L900 261L900 287L900 287L900 313L900 313L900 339L900 339L900 365L900 365L900 391L900 391L900 417L900 417L900 443L900 443L900 470L900 470L900 496L900 496L900 522L900 522L900 548L900 548L900 574L900 574L900 600L900 600Z" fill="#221600"></path><path d="M696 600L674 600L674 574L691 574L691 548L646 548L646 522L639 522L639 496L709 496L709 470L647 470L647 443L683 443L683 417L713 417L713 391L654 391L654 365L671 365L671 339L644 339L644 313L708 313L708 287L698 287L698 261L668 261L668 235L637 235L637 209L643 209L643 183L680 183L680 157L663 157L663 130L720 130L720 104L663 104L663 78L696 78L696 52L668 52L668 26L640 26L640 0L900 0L900 26L900 26L900 52L900 52L900 78L900 78L900 104L900 104L900 130L900 130L900 157L900 157L900 183L900 183L900 209L900 209L900 235L900 235L900 261L900 261L900 287L900 287L900 313L900 313L900 339L900 339L900 365L900 365L900 391L900 391L900 417L900 417L900 443L900 443L900 470L900 470L900 496L900 496L900 522L900 522L900 548L900 548L900 574L900 574L900 600L900 600Z" fill="#311f03"></path><path d="M720 600L738 600L738 574L709 574L709 548L708 548L708 522L731 522L731 496L696 496L696 470L720 470L720 443L689 443L689 417L701 417L701 391L733 391L733 365L691 365L691 339L730 339L730 313L706 313L706 287L669 287L669 261L690 261L690 235L725 235L725 209L695 209L695 183L667 183L667 157L729 157L729 130L705 130L705 104L696 104L696 78L703 78L703 52L686 52L686 26L660 26L660 0L900 0L900 26L900 26L900 52L900 52L900 78L900 78L900 104L900 104L900 130L900 130L900 157L900 157L900 183L900 183L900 209L900 209L900 235L900 235L900 261L900 261L900 287L900 287L900 313L900 313L900 339L900 339L900 365L900 365L900 391L900 391L900 417L900 417L900 443L900 443L900 470L900 470L900 496L900 496L900 522L900 522L900 548L900 548L900 574L900 574L900 600L900 600Z" fill="#412905"></path><path d="M685 600L716 600L716 574L727 574L727 548L687 548L687 522L686 522L686 496L712 496L712 470L694 470L694 443L702 443L702 417L695 417L695 391L683 391L683 365L702 365L702 339L682 339L682 313L746 313L746 287L742 287L742 261L704 261L704 235L741 235L741 209L718 209L718 183L711 183L711 157L748 157L748 130L707 130L707 104L739 104L739 78L735 78L735 52L706 52L706 26L752 26L752 0L900 0L900 26L900 26L900 52L900 52L900 78L900 78L900 104L900 104L900 130L900 130L900 157L900 157L900 183L900 183L900 209L900 209L900 235L900 235L900 261L900 261L900 287L900 287L900 313L900 313L900 339L900 339L900 365L900 365L900 391L900 391L900 417L900 417L900 443L900 443L900 470L900 470L900 496L900 496L900 522L900 522L900 548L900 548L900 574L900 574L900 600L900 600Z" fill="#523206"></path><path d="M721 600L723 600L723 574L714 574L714 548L729 548L729 522L705 522L705 496L727 496L727 470L704 470L704 443L729 443L729 417L764 417L764 391L726 391L726 365L771 365L771 339L756 339L756 313L731 313L731 287L707 287L707 261L743 261L743 235L754 235L754 209L752 209L752 183L753 183L753 157L716 157L716 130L738 130L738 104L754 104L754 78L739 78L739 52L704 52L704 26L765 26L765 0L900 0L900 26L900 26L900 52L900 52L900 78L900 78L900 104L900 104L900 130L900 130L900 157L900 157L900 183L900 183L900 209L900 209L900 235L900 235L900 261L900 261L900 287L900 287L900 313L900 313L900 339L900 339L900 365L900 365L900 391L900 391L900 417L900 417L900 443L900 443L900 470L900 470L900 496L900 496L900 522L900 522L900 548L900 548L900 574L900 574L900 600L900 600Z" fill="#643c06"></path><path d="M777 600L782 600L782 574L761 574L761 548L744 548L744 522L778 522L778 496L785 496L785 470L751 470L751 443L771 443L771 417L771 417L771 391L734 391L734 365L761 365L761 339L753 339L753 313L751 313L751 287L780 287L780 261L787 261L787 235L734 235L734 209L745 209L745 183L729 183L729 157L752 157L752 130L764 130L764 104L748 104L748 78L733 78L733 52L742 52L742 26L752 26L752 0L900 0L900 26L900 26L900 52L900 52L900 78L900 78L900 104L900 104L900 130L900 130L900 157L900 157L900 183L900 183L900 209L900 209L900 235L900 235L900 261L900 261L900 287L900 287L900 313L900 313L900 339L900 339L900 365L900 365L900 391L900 391L900 417L900 417L900 443L900 443L900 470L900 470L900 496L900 496L900 522L900 522L900 548L900 548L900 574L900 574L900 600L900 600Z" fill="#784504"></path><path d="M791 600L754 600L754 574L763 574L763 548L789 548L789 522L802 522L802 496L764 496L764 470L768 470L768 443L752 443L752 417L749 417L749 391L787 391L787 365L767 365L767 339L756 339L756 313L795 313L795 287L757 287L757 261L791 261L791 235L781 235L781 209L768 209L768 183L779 183L779 157L776 157L776 130L801 130L801 104L775 104L775 78L777 78L777 52L801 52L801 26L787 26L787 0L900 0L900 26L900 26L900 52L900 52L900 78L900 78L900 104L900 104L900 130L900 130L900 157L900 157L900 183L900 183L900 209L900 209L900 235L900 235L900 261L900 261L900 287L900 287L900 313L900 313L900 339L900 339L900 365L900 365L900 391L900 391L900 417L900 417L900 443L900 443L900 470L900 470L900 496L900 496L900 522L900 522L900 548L900 548L900 574L900 574L900 600L900 600Z" fill="#8c4f02"></path><path d="M804 600L807 600L807 574L779 574L779 548L797 548L797 522L787 522L787 496L793 496L793 470L784 470L784 443L793 443L793 417L777 417L777 391L790 391L790 365L780 365L780 339L814 339L814 313L790 313L790 287L778 287L778 261L785 261L785 235L778 235L778 209L776 209L776 183L818 183L818 157L772 157L772 130L814 130L814 104L775 104L775 78L774 78L774 52L779 52L779 26L772 26L772 0L900 0L900 26L900 26L900 52L900 52L900 78L900 78L900 104L900 104L900 130L900 130L900 157L900 157L900 183L900 183L900 209L900 209L900 235L900 235L900 261L900 261L900 287L900 287L900 313L900 313L900 339L900 339L900 365L900 365L900 391L900 391L900 417L900 417L900 443L900 443L900 470L900 470L900 496L900 496L900 522L900 522L900 548L900 548L900 574L900 574L900 600L900 600Z" fill="#a25800"></path><path d="M826 600L834 600L834 574L818 574L818 548L825 548L825 522L808 522L808 496L819 496L819 470L822 470L822 443L809 443L809 417L823 417L823 391L802 391L802 365L818 365L818 339L830 339L830 313L825 313L825 287L821 287L821 261L818 261L818 235L827 235L827 209L822 209L822 183L799 183L799 157L816 157L816 130L806 130L806 104L833 104L833 78L829 78L829 52L831 52L831 26L814 26L814 0L900 0L900 26L900 26L900 52L900 52L900 78L900 78L900 104L900 104L900 130L900 130L900 157L900 157L900 183L900 183L900 209L900 209L900 235L900 235L900 261L900 261L900 287L900 287L900 313L900 313L900 339L900 339L900 365L900 365L900 391L900 391L900 417L900 417L900 443L900 443L900 470L900 470L900 496L900 496L900 522L900 522L900 548L900 548L900 574L900 574L900 600L900 600Z" fill="#b86100"></path><path d="M824 600L833 600L833 574L843 574L843 548L826 548L826 522L828 522L828 496L849 496L849 470L830 470L830 443L823 443L823 417L831 417L831 391L833 391L833 365L817 365L817 339L834 339L834 313L852 313L852 287L848 287L848 261L823 261L823 235L830 235L830 209L818 209L818 183L841 183L841 157L849 157L849 130L821 130L821 104L831 104L831 78L834 78L834 52L840 52L840 26L845 26L845 0L900 0L900 26L900 26L900 52L900 52L900 78L900 78L900 104L900 104L900 130L900 130L900 157L900 157L900 183L900 183L900 209L900 209L900 235L900 235L900 261L900 261L900 287L900 287L900 313L900 313L900 339L900 339L900 365L900 365L900 391L900 391L900 417L900 417L900 443L900 443L900 470L900 470L900 496L900 496L900 522L900 522L900 548L900 548L900 574L900 574L900 600L900 600Z" fill="#cf6b00"></path><path d="M856 600L844 600L844 574L862 574L862 548L855 548L855 522L862 522L862 496L862 496L862 470L848 470L848 443L848 443L848 417L861 417L861 391L862 391L862 365L865 365L865 339L858 339L858 313L850 313L850 287L861 287L861 261L864 261L864 235L857 235L857 209L848 209L848 183L840 183L840 157L862 157L862 130L846 130L846 104L860 104L860 78L850 78L850 52L842 52L842 26L852 26L852 0L900 0L900 26L900 26L900 52L900 52L900 78L900 78L900 104L900 104L900 130L900 130L900 157L900 157L900 183L900 183L900 209L900 209L900 235L900 235L900 261L900 261L900 287L900 287L900 313L900 313L900 339L900 339L900 365L900 365L900 391L900 391L900 417L900 417L900 443L900 443L900 470L900 470L900 496L900 496L900 522L900 522L900 548L900 548L900 574L900 574L900 600L900 600Z" fill="#e67300"></path><path d="M875 600L881 600L881 574L884 574L884 548L863 548L863 522L870 522L870 496L878 496L878 470L878 470L878 443L880 443L880 417L875 417L875 391L872 391L872 365L867 365L867 339L884 339L884 313L871 313L871 287L865 287L865 261L879 261L879 235L882 235L882 209L877 209L877 183L876 183L876 157L864 157L864 130L863 130L863 104L869 104L869 78L881 78L881 52L868 52L868 26L875 26L875 0L900 0L900 26L900 26L900 52L900 52L900 78L900 78L900 104L900 104L900 130L900 130L900 157L900 157L900 183L900 183L900 209L900 209L900 235L900 235L900 261L900 261L900 287L900 287L900 313L900 313L900 339L900 339L900 365L900 365L900 391L900 391L900 417L900 417L900 443L900 443L900 470L900 470L900 496L900 496L900 522L900 522L900 548L900 548L900 574L900 574L900 600L900 600Z" fill="#ff7c00"></path></svg>