<svg id="visual" viewBox="0 0 900 600" width="900" height="600" xmlns="http://www.w3.org/2000/svg" xmlns:xlink="http://www.w3.org/1999/xlink" version="1.1"><rect x="0" y="0" width="900" height="600" fill="#000000"></rect><path d="M113 0L104 46L114 92L131 138L116 185L100 231L95 277L130 323L121 369L135 415L133 462L119 508L121 554L109 600L0 600L0 554L0 508L0 462L0 415L0 369L0 323L0 277L0 231L0 185L0 138L0 92L0 46L0 0Z" fill="#1b1756"></path><path d="M88 0L111 46L78 92L95 138L79 185L92 231L102 277L71 323L110 369L83 415L74 462L75 508L92 554L116 600L0 600L0 554L0 508L0 462L0 415L0 369L0 323L0 277L0 231L0 185L0 138L0 92L0 46L0 0Z" fill="#3b2182"></path><path d="M72 0L67 46L57 92L77 138L88 185L56 231L56 277L68 323L77 369L90 415L67 462L92 508L92 554L72 600L0 600L0 554L0 508L0 462L0 415L0 369L0 323L0 277L0 231L0 185L0 138L0 92L0 46L0 0Z" fill="#6327ae"></path><path d="M55 0L38 46L40 92L45 138L44 185L67 231L52 277L67 323L48 369L49 415L44 462L50 508L55 554L50 600L0 600L0 554L0 508L0 462L0 415L0 369L0 323L0 277L0 231L0 185L0 138L0 92L0 46L0 0Z" fill="#9324d8"></path><path d="M41 0L29 46L26 92L30 138L31 185L38 231L28 277L40 323L29 369L37 415L25 462L36 508L37 554L28 600L0 600L0 554L0 508L0 462L0 415L0 369L0 323L0 277L0 231L0 185L0 138L0 92L0 46L0 0Z" fill="#c900ff"></path></svg>