<svg id="visual" viewBox="0 0 900 450" width="900" height="450" xmlns="http://www.w3.org/2000/svg" xmlns:xlink="http://www.w3.org/1999/xlink" version="1.1"><rect x="0" y="0" width="900" height="450" fill="#101113"></rect><path d="M0 72L6.5 72.3C13 72.7 26 73.3 39 73.2C52 73 65 72 78 71.2C91 70.3 104 69.7 117.2 68C130.3 66.3 143.7 63.7 156.8 63.3C170 63 183 65 196 64.5C209 64 222 61 235 61C248 61 261 64 274 66.2C287 68.3 300 69.7 313 70.5C326 71.3 339 71.7 352 71C365 70.3 378 68.7 391 68C404 67.3 417 67.7 430.2 67C443.3 66.3 456.7 64.7 469.8 65.3C483 66 496 69 509 70.8C522 72.7 535 73.3 548 73.5C561 73.7 574 73.3 587 71.2C600 69 613 65 626 63.8C639 62.7 652 64.3 665 65.2C678 66 691 66 704 65.8C717 65.7 730 65.3 743.2 66.3C756.3 67.3 769.7 69.7 782.8 70.2C796 70.7 809 69.3 822 69.7C835 70 848 72 861 71.3C874 70.7 887 67.3 893.5 65.7L900 64L900 0L893.5 0C887 0 874 0 861 0C848 0 835 0 822 0C809 0 796 0 782.8 0C769.7 0 756.3 0 743.2 0C730 0 717 0 704 0C691 0 678 0 665 0C652 0 639 0 626 0C613 0 600 0 587 0C574 0 561 0 548 0C535 0 522 0 509 0C496 0 483 0 469.8 0C456.7 0 443.3 0 430.2 0C417 0 404 0 391 0C378 0 365 0 352 0C339 0 326 0 313 0C300 0 287 0 274 0C261 0 248 0 235 0C222 0 209 0 196 0C183 0 170 0 156.8 0C143.7 0 130.3 0 117.2 0C104 0 91 0 78 0C65 0 52 0 39 0C26 0 13 0 6.5 0L0 0Z" fill="#00b2ff"></path><path d="M0 53L6.5 51.8C13 50.7 26 48.3 39 48C52 47.7 65 49.3 78 49.5C91 49.7 104 48.3 117.2 47.7C130.3 47 143.7 47 156.8 47.5C170 48 183 49 196 50.7C209 52.3 222 54.7 235 55.3C248 56 261 55 274 53.7C287 52.3 300 50.7 313 50C326 49.3 339 49.7 352 51.7C365 53.7 378 57.3 391 56.8C404 56.3 417 51.7 430.2 49.3C443.3 47 456.7 47 469.8 47.7C483 48.3 496 49.7 509 50.5C522 51.3 535 51.7 548 50.8C561 50 574 48 587 48.7C600 49.3 613 52.7 626 53.5C639 54.3 652 52.7 665 51C678 49.3 691 47.7 704 47.3C717 47 730 48 743.2 49C756.3 50 769.7 51 782.8 50.3C796 49.7 809 47.3 822 46.7C835 46 848 47 861 46.8C874 46.7 887 45.3 893.5 44.7L900 44L900 0L893.5 0C887 0 874 0 861 0C848 0 835 0 822 0C809 0 796 0 782.8 0C769.7 0 756.3 0 743.2 0C730 0 717 0 704 0C691 0 678 0 665 0C652 0 639 0 626 0C613 0 600 0 587 0C574 0 561 0 548 0C535 0 522 0 509 0C496 0 483 0 469.8 0C456.7 0 443.3 0 430.2 0C417 0 404 0 391 0C378 0 365 0 352 0C339 0 326 0 313 0C300 0 287 0 274 0C261 0 248 0 235 0C222 0 209 0 196 0C183 0 170 0 156.8 0C143.7 0 130.3 0 117.2 0C104 0 91 0 78 0C65 0 52 0 39 0C26 0 13 0 6.5 0L0 0Z" fill="#3887c1"></path><path d="M0 35L6.5 36C13 37 26 39 39 39.2C52 39.3 65 37.7 78 36.7C91 35.7 104 35.3 117.2 35.8C130.3 36.3 143.7 37.7 156.8 37.2C170 36.7 183 34.3 196 35.3C209 36.3 222 40.7 235 41.2C248 41.7 261 38.3 274 36.5C287 34.7 300 34.3 313 34C326 33.7 339 33.3 352 33.8C365 34.3 378 35.7 391 35.8C404 36 417 35 430.2 34.8C443.3 34.7 456.7 35.3 469.8 36.3C483 37.3 496 38.7 509 39.3C522 40 535 40 548 38.7C561 37.3 574 34.7 587 33.3C600 32 613 32 626 32.5C639 33 652 34 665 34.7C678 35.3 691 35.7 704 37.7C717 39.7 730 43.3 743.2 43.8C756.3 44.3 769.7 41.7 782.8 41C796 40.3 809 41.7 822 40.5C835 39.3 848 35.7 861 36C874 36.3 887 40.7 893.5 42.8L900 45L900 0L893.5 0C887 0 874 0 861 0C848 0 835 0 822 0C809 0 796 0 782.8 0C769.7 0 756.3 0 743.2 0C730 0 717 0 704 0C691 0 678 0 665 0C652 0 639 0 626 0C613 0 600 0 587 0C574 0 561 0 548 0C535 0 522 0 509 0C496 0 483 0 469.8 0C456.7 0 443.3 0 430.2 0C417 0 404 0 391 0C378 0 365 0 352 0C339 0 326 0 313 0C300 0 287 0 274 0C261 0 248 0 235 0C222 0 209 0 196 0C183 0 170 0 156.8 0C143.7 0 130.3 0 117.2 0C104 0 91 0 78 0C65 0 52 0 39 0C26 0 13 0 6.5 0L0 0Z" fill="#3a5f86"></path><path d="M0 21L6.5 22.3C13 23.7 26 26.3 39 27C52 27.7 65 26.3 78 25.5C91 24.7 104 24.3 117.2 24.7C130.3 25 143.7 26 156.8 27C170 28 183 29 196 29.2C209 29.3 222 28.7 235 27.3C248 26 261 24 274 23.3C287 22.7 300 23.3 313 24.5C326 25.7 339 27.3 352 26.8C365 26.3 378 23.7 391 24C404 24.3 417 27.7 430.2 28.7C443.3 29.7 456.7 28.3 469.8 28.3C483 28.3 496 29.7 509 30.7C522 31.7 535 32.3 548 31.2C561 30 574 27 587 26.2C600 25.3 613 26.7 626 26.2C639 25.7 652 23.3 665 22C678 20.7 691 20.3 704 20.5C717 20.7 730 21.3 743.2 21.3C756.3 21.3 769.7 20.7 782.8 21.8C796 23 809 26 822 26.7C835 27.3 848 25.7 861 24.2C874 22.7 887 21.3 893.5 20.7L900 20L900 0L893.5 0C887 0 874 0 861 0C848 0 835 0 822 0C809 0 796 0 782.8 0C769.7 0 756.3 0 743.2 0C730 0 717 0 704 0C691 0 678 0 665 0C652 0 639 0 626 0C613 0 600 0 587 0C574 0 561 0 548 0C535 0 522 0 509 0C496 0 483 0 469.8 0C456.7 0 443.3 0 430.2 0C417 0 404 0 391 0C378 0 365 0 352 0C339 0 326 0 313 0C300 0 287 0 274 0C261 0 248 0 235 0C222 0 209 0 196 0C183 0 170 0 156.8 0C143.7 0 130.3 0 117.2 0C104 0 91 0 78 0C65 0 52 0 39 0C26 0 13 0 6.5 0L0 0Z" fill="#2e3b4f"></path><path d="M0 20L6.5 19.8C13 19.7 26 19.3 39 18.3C52 17.3 65 15.7 78 14C91 12.3 104 10.7 117.2 11.2C130.3 11.7 143.7 14.3 156.8 15.8C170 17.3 183 17.7 196 16.2C209 14.7 222 11.3 235 9.7C248 8 261 8 274 9.8C287 11.7 300 15.3 313 17.2C326 19 339 19 352 19C365 19 378 19 391 17.5C404 16 417 13 430.2 13C443.3 13 456.7 16 469.8 16.5C483 17 496 15 509 13.2C522 11.3 535 9.7 548 10C561 10.3 574 12.7 587 13.3C600 14 613 13 626 12.2C639 11.3 652 10.7 665 10.3C678 10 691 10 704 10.8C717 11.7 730 13.3 743.2 13.5C756.3 13.7 769.7 12.3 782.8 11.5C796 10.7 809 10.3 822 11.8C835 13.3 848 16.7 861 16.7C874 16.7 887 13.3 893.5 11.7L900 10L900 0L893.5 0C887 0 874 0 861 0C848 0 835 0 822 0C809 0 796 0 782.8 0C769.7 0 756.3 0 743.2 0C730 0 717 0 704 0C691 0 678 0 665 0C652 0 639 0 626 0C613 0 600 0 587 0C574 0 561 0 548 0C535 0 522 0 509 0C496 0 483 0 469.8 0C456.7 0 443.3 0 430.2 0C417 0 404 0 391 0C378 0 365 0 352 0C339 0 326 0 313 0C300 0 287 0 274 0C261 0 248 0 235 0C222 0 209 0 196 0C183 0 170 0 156.8 0C143.7 0 130.3 0 117.2 0C104 0 91 0 78 0C65 0 52 0 39 0C26 0 13 0 6.5 0L0 0Z" fill="#1a1b1e"></path></svg>