<svg id="visual" viewBox="0 0 540 960" width="540" height="960" xmlns="http://www.w3.org/2000/svg" xmlns:xlink="http://www.w3.org/1999/xlink" version="1.1"><rect x="0" y="0" width="540" height="960" fill="#141414"></rect><path d="M429 960L427 950.7C425 941.3 421 922.7 420 903.8C419 885 421 866 424.5 847.2C428 828.3 433 809.7 431.3 790.8C429.7 772 421.3 753 416.8 734.2C412.3 715.3 411.7 696.7 412.7 677.8C413.7 659 416.3 640 418.2 621.2C420 602.3 421 583.7 424 564.8C427 546 432 527 434.8 508.2C437.7 489.3 438.3 470.7 435.2 451.8C432 433 425 414 424.3 395.2C423.7 376.3 429.3 357.7 431.8 338.8C434.3 320 433.7 301 430 282.2C426.3 263.3 419.7 244.7 415.2 225.8C410.7 207 408.3 188 409.8 169.2C411.3 150.3 416.7 131.7 417.8 112.8C419 94 416 75 413.5 56.2C411 37.3 409 18.7 408 9.3L407 0L540 0L540 9.3C540 18.7 540 37.3 540 56.2C540 75 540 94 540 112.8C540 131.7 540 150.3 540 169.2C540 188 540 207 540 225.8C540 244.7 540 263.3 540 282.2C540 301 540 320 540 338.8C540 357.7 540 376.3 540 395.2C540 414 540 433 540 451.8C540 470.7 540 489.3 540 508.2C540 527 540 546 540 564.8C540 583.7 540 602.3 540 621.2C540 640 540 659 540 677.8C540 696.7 540 715.3 540 734.2C540 753 540 772 540 790.8C540 809.7 540 828.3 540 847.2C540 866 540 885 540 903.8C540 922.7 540 941.3 540 950.7L540 960Z" fill="#1a1b1e"></path><path d="M439 960L440.3 950.7C441.7 941.3 444.3 922.7 443.8 903.8C443.3 885 439.7 866 437 847.2C434.3 828.3 432.7 809.7 432.8 790.8C433 772 435 753 436.3 734.2C437.7 715.3 438.3 696.7 436.5 677.8C434.7 659 430.3 640 427.5 621.2C424.7 602.3 423.3 583.7 426.7 564.8C430 546 438 527 438 508.2C438 489.3 430 470.7 430.7 451.8C431.3 433 440.7 414 442.3 395.2C444 376.3 438 357.7 438 338.8C438 320 444 301 447 282.2C450 263.3 450 244.7 446.5 225.8C443 207 436 188 431.5 169.2C427 150.3 425 131.7 427.5 112.8C430 94 437 75 438.2 56.2C439.3 37.3 434.7 18.7 432.3 9.3L430 0L540 0L540 9.3C540 18.7 540 37.3 540 56.2C540 75 540 94 540 112.8C540 131.7 540 150.3 540 169.2C540 188 540 207 540 225.8C540 244.7 540 263.3 540 282.2C540 301 540 320 540 338.8C540 357.7 540 376.3 540 395.2C540 414 540 433 540 451.8C540 470.7 540 489.3 540 508.2C540 527 540 546 540 564.8C540 583.7 540 602.3 540 621.2C540 640 540 659 540 677.8C540 696.7 540 715.3 540 734.2C540 753 540 772 540 790.8C540 809.7 540 828.3 540 847.2C540 866 540 885 540 903.8C540 922.7 540 941.3 540 950.7L540 960Z" fill="#1a2540"></path><path d="M448 960L448.7 950.7C449.3 941.3 450.7 922.7 449.8 903.8C449 885 446 866 443.7 847.2C441.3 828.3 439.7 809.7 440.5 790.8C441.3 772 444.7 753 446.8 734.2C449 715.3 450 696.7 449.3 677.8C448.7 659 446.3 640 447 621.2C447.7 602.3 451.3 583.7 451.3 564.8C451.3 546 447.7 527 447.3 508.2C447 489.3 450 470.7 449.3 451.8C448.7 433 444.3 414 443.7 395.2C443 376.3 446 357.7 448.2 338.8C450.3 320 451.7 301 453.8 282.2C456 263.3 459 244.7 457.8 225.8C456.7 207 451.3 188 450 169.2C448.7 150.3 451.3 131.7 450.7 112.8C450 94 446 75 447.3 56.2C448.7 37.3 455.3 18.7 458.7 9.3L462 0L540 0L540 9.3C540 18.7 540 37.3 540 56.2C540 75 540 94 540 112.8C540 131.7 540 150.3 540 169.2C540 188 540 207 540 225.8C540 244.7 540 263.3 540 282.2C540 301 540 320 540 338.8C540 357.7 540 376.3 540 395.2C540 414 540 433 540 451.8C540 470.7 540 489.3 540 508.2C540 527 540 546 540 564.8C540 583.7 540 602.3 540 621.2C540 640 540 659 540 677.8C540 696.7 540 715.3 540 734.2C540 753 540 772 540 790.8C540 809.7 540 828.3 540 847.2C540 866 540 885 540 903.8C540 922.7 540 941.3 540 950.7L540 960Z" fill="#182e63"></path><path d="M461 960L461.5 950.7C462 941.3 463 922.7 464 903.8C465 885 466 866 465.8 847.2C465.7 828.3 464.3 809.7 463.2 790.8C462 772 461 753 463.2 734.2C465.3 715.3 470.7 696.7 472.7 677.8C474.7 659 473.3 640 469.5 621.2C465.7 602.3 459.3 583.7 460.3 564.8C461.3 546 469.7 527 472.3 508.2C475 489.3 472 470.7 470.2 451.8C468.3 433 467.7 414 467.3 395.2C467 376.3 467 357.7 466.7 338.8C466.3 320 465.7 301 464 282.2C462.3 263.3 459.7 244.7 459.7 225.8C459.7 207 462.3 188 462.5 169.2C462.7 150.3 460.3 131.7 459.5 112.8C458.7 94 459.3 75 462.3 56.2C465.3 37.3 470.7 18.7 473.3 9.3L476 0L540 0L540 9.3C540 18.7 540 37.3 540 56.2C540 75 540 94 540 112.8C540 131.7 540 150.3 540 169.2C540 188 540 207 540 225.8C540 244.7 540 263.3 540 282.2C540 301 540 320 540 338.8C540 357.7 540 376.3 540 395.2C540 414 540 433 540 451.8C540 470.7 540 489.3 540 508.2C540 527 540 546 540 564.8C540 583.7 540 602.3 540 621.2C540 640 540 659 540 677.8C540 696.7 540 715.3 540 734.2C540 753 540 772 540 790.8C540 809.7 540 828.3 540 847.2C540 866 540 885 540 903.8C540 922.7 540 941.3 540 950.7L540 960Z" fill="#1f3587"></path><path d="M487 960L484.5 950.7C482 941.3 477 922.7 475.2 903.8C473.3 885 474.7 866 477 847.2C479.3 828.3 482.7 809.7 483.7 790.8C484.7 772 483.3 753 484 734.2C484.7 715.3 487.3 696.7 488.5 677.8C489.7 659 489.3 640 489.3 621.2C489.3 602.3 489.7 583.7 488.2 564.8C486.7 546 483.3 527 483.5 508.2C483.7 489.3 487.3 470.7 486.7 451.8C486 433 481 414 478 395.2C475 376.3 474 357.7 474.7 338.8C475.3 320 477.7 301 477.7 282.2C477.7 263.3 475.3 244.7 473.7 225.8C472 207 471 188 471.5 169.2C472 150.3 474 131.7 474.3 112.8C474.7 94 473.3 75 475.8 56.2C478.3 37.3 484.7 18.7 487.8 9.3L491 0L540 0L540 9.3C540 18.7 540 37.3 540 56.2C540 75 540 94 540 112.8C540 131.7 540 150.3 540 169.2C540 188 540 207 540 225.8C540 244.7 540 263.3 540 282.2C540 301 540 320 540 338.8C540 357.7 540 376.3 540 395.2C540 414 540 433 540 451.8C540 470.7 540 489.3 540 508.2C540 527 540 546 540 564.8C540 583.7 540 602.3 540 621.2C540 640 540 659 540 677.8C540 696.7 540 715.3 540 734.2C540 753 540 772 540 790.8C540 809.7 540 828.3 540 847.2C540 866 540 885 540 903.8C540 922.7 540 941.3 540 950.7L540 960Z" fill="#353aa9"></path><path d="M498 960L496.7 950.7C495.3 941.3 492.7 922.7 492 903.8C491.3 885 492.7 866 494 847.2C495.3 828.3 496.7 809.7 495.2 790.8C493.7 772 489.3 753 488.8 734.2C488.3 715.3 491.7 696.7 493.7 677.8C495.7 659 496.3 640 494.8 621.2C493.3 602.3 489.7 583.7 487.7 564.8C485.7 546 485.3 527 487 508.2C488.7 489.3 492.3 470.7 494.2 451.8C496 433 496 414 494.8 395.2C493.7 376.3 491.3 357.7 492.5 338.8C493.7 320 498.3 301 499.5 282.2C500.7 263.3 498.3 244.7 498.2 225.8C498 207 500 188 498.7 169.2C497.3 150.3 492.7 131.7 489.8 112.8C487 94 486 75 486.7 56.2C487.3 37.3 489.7 18.7 490.8 9.3L492 0L540 0L540 9.3C540 18.7 540 37.3 540 56.2C540 75 540 94 540 112.8C540 131.7 540 150.3 540 169.2C540 188 540 207 540 225.8C540 244.7 540 263.3 540 282.2C540 301 540 320 540 338.8C540 357.7 540 376.3 540 395.2C540 414 540 433 540 451.8C540 470.7 540 489.3 540 508.2C540 527 540 546 540 564.8C540 583.7 540 602.3 540 621.2C540 640 540 659 540 677.8C540 696.7 540 715.3 540 734.2C540 753 540 772 540 790.8C540 809.7 540 828.3 540 847.2C540 866 540 885 540 903.8C540 922.7 540 941.3 540 950.7L540 960Z" fill="#5539c9"></path><path d="M502 960L502.2 950.7C502.3 941.3 502.7 922.7 505.2 903.8C507.7 885 512.3 866 512.7 847.2C513 828.3 509 809.7 507.8 790.8C506.7 772 508.3 753 507.7 734.2C507 715.3 504 696.7 503.2 677.8C502.3 659 503.7 640 505 621.2C506.3 602.3 507.7 583.7 508.7 564.8C509.7 546 510.3 527 510.5 508.2C510.7 489.3 510.3 470.7 509.3 451.8C508.3 433 506.7 414 506.5 395.2C506.3 376.3 507.7 357.7 508 338.8C508.3 320 507.7 301 507.7 282.2C507.7 263.3 508.3 244.7 509.3 225.8C510.3 207 511.7 188 512.2 169.2C512.7 150.3 512.3 131.7 511.3 112.8C510.3 94 508.7 75 506.8 56.2C505 37.3 503 18.7 502 9.3L501 0L540 0L540 9.3C540 18.7 540 37.3 540 56.2C540 75 540 94 540 112.8C540 131.7 540 150.3 540 169.2C540 188 540 207 540 225.8C540 244.7 540 263.3 540 282.2C540 301 540 320 540 338.8C540 357.7 540 376.3 540 395.2C540 414 540 433 540 451.8C540 470.7 540 489.3 540 508.2C540 527 540 546 540 564.8C540 583.7 540 602.3 540 621.2C540 640 540 659 540 677.8C540 696.7 540 715.3 540 734.2C540 753 540 772 540 790.8C540 809.7 540 828.3 540 847.2C540 866 540 885 540 903.8C540 922.7 540 941.3 540 950.7L540 960Z" fill="#7d2fe6"></path><path d="M528 960L527.2 950.7C526.3 941.3 524.7 922.7 524.5 903.8C524.3 885 525.7 866 526.5 847.2C527.3 828.3 527.7 809.7 528 790.8C528.3 772 528.7 753 527.2 734.2C525.7 715.3 522.3 696.7 521 677.8C519.7 659 520.3 640 521.7 621.2C523 602.3 525 583.7 525.7 564.8C526.3 546 525.7 527 525.3 508.2C525 489.3 525 470.7 524.2 451.8C523.3 433 521.7 414 522.5 395.2C523.3 376.3 526.7 357.7 528.2 338.8C529.7 320 529.3 301 529.2 282.2C529 263.3 529 244.7 527.3 225.8C525.7 207 522.3 188 520.5 169.2C518.7 150.3 518.3 131.7 519.2 112.8C520 94 522 75 523.2 56.2C524.3 37.3 524.7 18.7 524.8 9.3L525 0L540 0L540 9.3C540 18.7 540 37.3 540 56.2C540 75 540 94 540 112.8C540 131.7 540 150.3 540 169.2C540 188 540 207 540 225.8C540 244.7 540 263.3 540 282.2C540 301 540 320 540 338.8C540 357.7 540 376.3 540 395.2C540 414 540 433 540 451.8C540 470.7 540 489.3 540 508.2C540 527 540 546 540 564.8C540 583.7 540 602.3 540 621.2C540 640 540 659 540 677.8C540 696.7 540 715.3 540 734.2C540 753 540 772 540 790.8C540 809.7 540 828.3 540 847.2C540 866 540 885 540 903.8C540 922.7 540 941.3 540 950.7L540 960Z" fill="#aa00ff"></path></svg>